<svg width="24px" height="24px" viewBox="0 0 16 16" fill="none" xmlns="http://www.w3.org/2000/svg">
<path d="M11.8892 11.8925C11.7299 12.0519 11.546 12.1377 11.3377 12.1499C11.1293 12.1377 10.9455 12.0519 10.7861 11.8925L8.02841 9.13482L5.17877 11.9845C4.98266 12.1806 4.78656 12.2664 4.59046 12.2418C4.39435 12.2173 4.22276 12.1315 4.07568 11.9845C3.91635 11.8251 3.83668 11.6474 3.83668 11.4513C3.82442 11.2429 3.90409 11.053 4.07568 10.8814L6.92532 8.03174L4.14922 5.25563C3.98989 5.0963 3.91022 4.91858 3.91022 4.72248C3.91022 4.50186 3.98989 4.31188 4.14922 4.15255C4.51692 3.78485 4.88461 3.78485 5.25231 4.15255L8.02841 6.92865L10.878 4.07901C11.0619 3.89516 11.2641 3.82775 11.4847 3.87678C11.7054 3.90129 11.8708 3.9687 11.9811 4.07901C12.116 4.21383 12.1956 4.39155 12.2201 4.61217C12.2324 4.82053 12.1527 5.0105 11.9811 5.1821L9.1315 8.03174L11.8892 10.7895C12.2569 11.1571 12.2569 11.5248 11.8892 11.8925Z" fill="#fff"/>
</svg>
